<mxfile host="app.diagrams.net" modified="2024-05-09T07:44:08.635Z" agent="Mozilla/5.0 (Windows NT 10.0; Win64; x64) AppleWebKit/537.36 (KHTML, like Gecko) Chrome/124.0.0.0 Safari/537.36" etag="SwWm-b8th9Y_bOkbrgIC" version="24.3.1" type="github">
  <diagram name="Page-1" id="uZUTdXZjyvx4JvpZGBvX">
    <mxGraphModel dx="1744" dy="1036" grid="1" gridSize="10" guides="1" tooltips="1" connect="1" arrows="1" fold="1" page="1" pageScale="1" pageWidth="827" pageHeight="1169" math="0" shadow="0">
      <root>
        <mxCell id="0" />
        <mxCell id="1" parent="0" />
        <mxCell id="gvo1UeulZ7zQ5qaxi3io-1" value="" style="whiteSpace=wrap;html=1;" vertex="1" parent="1">
          <mxGeometry x="300" y="240" width="270" height="220" as="geometry" />
        </mxCell>
        <mxCell id="-RQyuFvQLBRNf_Z-5diO-1" value="" style="rounded=0;whiteSpace=wrap;html=1;direction=east;" vertex="1" parent="1">
          <mxGeometry x="240" y="210" width="120" height="60" as="geometry" />
        </mxCell>
      </root>
    </mxGraphModel>
  </diagram>
</mxfile>
